# xmcd CD database file
#
# Track frame offsets:
#	150
#	23363
#	44321
#	64045
#	87524
#	113693
#	126422
#	153236
#	177480
#	192527
#
# Disc length: 2887 seconds
#
# Revision: 2
# Processed by: cddbd v1.5.2PL0 Copyright (c) Steve Scherf et al.
# Submitted via: CDex 1.51
#
DISCID=810b450a
DTITLE=Joe Jackson - Rain
DYEAR=2008
DGENRE=Jazz
TTITLE0=Invisible Man
TTITLE1=Too Tough
TTITLE2=Citizen Zane
TTITLE3=Wasted Time
TTITLE4=The Uptown Train
TTITLE5=King Pleasure Time
TTITLE6=Solo (So Low)
TTITLE7=Rush Across The Road
TTITLE8=Good Bad Boy
TTITLE9=A Place In The Rain
EXTD=YEAR: 2008
EXTT0=
EXTT1=
EXTT2=
EXTT3=
EXTT4=
EXTT5=
EXTT6=
EXTT7=
EXTT8=
EXTT9=
PLAYORDER=
